<?xml version="1.0" encoding="iso-8859-1"?>
<!-- Generator: Adobe Illustrator 19.0.0, SVG Export Plug-In . SVG Version: 6.00 Build 0)  -->
<svg version="1.1" id="Layer_1" xmlns="http://www.w3.org/2000/svg" xmlns:xlink="http://www.w3.org/1999/xlink" x="0px" y="0px"
	 viewBox="0 0 512.001 512.001" style="enable-background:new 0 0 512.001 512.001;" xml:space="preserve">
<polygon style="fill:#F4661E;" points="471.568,406.897 471.568,450.01 417.677,450.01 417.677,503.902 396.12,503.902 
	374.563,503.902 374.563,450.01 320.671,450.01 320.671,406.897 374.563,406.897 374.563,395.472 374.563,353.005 417.677,353.005 
	417.677,406.897 "/>
<path style="fill:#4CBD91;" d="M374.563,450.01v53.892H40.434c0-15.09,0-26.945,0-26.945s0.97-58.958,102.395-91.616
	c0,0,36.755-19.185,48.503-32.335c0,0,22.203,26.945,53.892,26.945s53.892-26.945,53.892-26.945
	c11.748,13.15,48.503,32.335,48.503,32.335c9.916,3.126,18.863,6.574,26.945,10.132v11.426h-53.892v43.113h53.891V450.01z"/>
<g>
	<path style="fill:#FEDAAB;" d="M191.331,318.73c15.629,8.192,33.844,12.718,53.892,12.718c20.048,0,38.263-4.635,53.892-12.718
		v34.276c0,0-22.203,26.945-53.892,26.945s-53.892-26.945-53.892-26.945L191.331,318.73L191.331,318.73z"/>
	<path style="fill:#FEDAAB;" d="M299.115,318.73c-15.629,8.084-33.844,12.718-53.892,12.718s-38.263-4.527-53.892-12.718
		c-34.598-18-57.34-53.353-63.161-95.497c-16.706-2.263-33.844-18.108-33.844-31.903c0-14.874,14.443-21.557,32.335-21.557v-21.557
		c0,0,43.113,0,91.616-48.503c0,0,70.059,43.113,145.508,43.113v26.945c17.892,0,32.335,6.682,32.335,21.557
		c0,13.797-17.137,29.64-33.844,31.903C356.455,265.377,333.713,300.73,299.115,318.73z"/>
</g>
<path style="fill:#A67C52;" d="M218.277,99.714c-48.503,48.503-91.616,48.503-91.616,48.503v-5.389
	c0,0-5.605-134.729,118.562-134.729c123.951,0,118.562,134.729,118.562,134.729C288.336,142.827,218.277,99.714,218.277,99.714z"/>
<path style="fill:#231F20;" d="M425.774,398.799v-53.892h-59.31v38.484c-5.176-2.001-10.425-3.87-15.721-5.555
	c-9.63-5.074-33.322-18.5-43.532-28.133v-26.191c32.68-18.787,55.046-52.405,62.205-93.531c18.607-5.311,34.8-22.685,34.8-38.652
	c0-16.221-12.185-26.993-32.335-29.225v-19.129c0.158-4.58,1.563-67.652-37.994-108.823C312.114,11.49,282.283,0,245.223,0
	c-37.158,0-67.044,11.513-88.826,34.221c-39.48,41.157-38.001,104.123-37.834,108.761v19.124
	c-20.15,2.232-32.334,13.004-32.334,29.225c0,15.967,16.194,33.339,34.8,38.652c7.161,41.134,29.532,74.757,62.203,93.533v26.19
	c-10.217,9.642-33.937,23.08-43.552,28.145c-105.063,34.093-107.3,96.338-107.343,98.975l-0.001,35.177h393.439v-53.892h53.892
	v-59.309h-53.892V398.799z M199.429,331.273c14.141,5.487,29.486,8.273,45.794,8.273c16.181,0,31.524-2.8,45.794-8.317v18.639
	c-5.572,5.782-23.204,21.985-45.794,21.985c-22.6,0-40.237-16.217-45.794-21.984L199.429,331.273L199.429,331.273z M168.084,45.432
	c18.611-19.4,44.563-29.237,77.139-29.237c32.442,0,58.322,9.793,76.918,29.107c27.707,28.774,32.611,71.659,33.422,89.244
	c-69.063-2.924-132.388-41.328-133.041-41.729l-5.447-3.353l-4.523,4.523c-33.196,33.196-63.768,42.512-77.822,45.12
	C134.872,125.942,137.544,77.269,168.084,45.432z M136.192,222.127l-0.841-6.092l-6.094-0.826
	c-11.717-1.587-26.834-13.452-26.834-23.879c0-12.488,18.552-13.459,24.236-13.459h8.098v-22.304
	c14.835-2.216,48.105-10.995,84.764-45.763c17.498,9.814,73.821,38.598,136.169,40.961l-0.004,27.105h8.098
	c5.687,0,24.237,0.971,24.237,13.459c0,10.427-15.117,22.292-26.834,23.879l-6.094,0.826l-0.841,6.092
	c-5.558,40.254-27.019,72.846-58.86,89.411c-15.155,7.839-32.035,11.813-50.172,11.813c-18.335,0-35.203-3.968-50.154-11.805
	C163.211,294.973,141.752,262.381,136.192,222.127z M48.532,495.804v-18.75c0.062-1.639,2.994-53.808,96.779-84.006l0.654-0.211
	l0.61-0.319c3.353-1.75,29.401-15.506,44.48-28.135c9.324,8.777,28.871,23.665,54.166,23.665c25.297,0,44.842-14.888,54.166-23.665
	c15.08,12.629,41.129,26.385,44.481,28.135l0.633,0.33l0.68,0.214c5.467,1.723,10.88,3.656,16.209,5.737h-48.817v59.309h53.891
	v37.696L48.532,495.804L48.532,495.804z M463.47,441.912h-53.892v53.892H382.66v-53.892h-53.891v-26.917h53.891v-53.892h26.918
	v53.892h53.892V441.912z"/>
<g>
</g>
<g>
</g>
<g>
</g>
<g>
</g>
<g>
</g>
<g>
</g>
<g>
</g>
<g>
</g>
<g>
</g>
<g>
</g>
<g>
</g>
<g>
</g>
<g>
</g>
<g>
</g>
<g>
</g>
</svg>
